<?xml version="1.0" standalone="no"?>
<!DOCTYPE svg PUBLIC "-//W3C//DTD SVG 20010904//EN"
 "http://www.w3.org/TR/2001/REC-SVG-20010904/DTD/svg10.dtd">
<svg version="1.0" xmlns="http://www.w3.org/2000/svg"
 width="749.000000pt" height="222.000000pt" viewBox="0 0 749.000000 222.000000"
 preserveAspectRatio="xMidYMid meet">

<g transform="translate(0.000000,222.000000) scale(0.100000,-0.100000)"
fill="#000000" stroke="none">
<path d="M1988 1682 c-30 -18 -108 -131 -108 -156 0 -9 -4 -24 -9 -34 -5 -9
-21 -48 -36 -87 -15 -38 -33 -83 -41 -98 -8 -16 -14 -32 -14 -37 0 -5 -13 -38
-30 -73 -16 -36 -30 -70 -30 -76 0 -6 -3 -11 -8 -11 -4 0 -13 -17 -19 -39 -13
-39 -86 -204 -103 -231 -6 -8 -13 -22 -16 -30 -3 -8 -10 -23 -15 -32 -5 -10
-9 -31 -9 -48 0 -28 2 -30 39 -30 34 0 45 7 88 51 101 107 251 256 297 294 27
22 54 46 61 53 8 6 18 12 24 12 5 0 22 11 37 25 50 47 87 25 64 -37 -16 -44
-29 -164 -23 -203 14 -85 135 -80 321 12 42 21 81 38 86 38 5 0 8 -35 7 -77
-2 -77 -2 -78 29 -97 29 -17 35 -18 83 -4 29 9 63 21 77 27 35 15 153 87 165
100 20 22 73 56 89 56 10 0 16 -9 16 -24 0 -13 9 -34 19 -47 17 -21 27 -24 83
-22 34 1 79 8 98 16 88 36 100 42 100 49 0 4 7 8 15 8 9 0 65 36 126 81 143
104 157 97 71 -36 -6 -11 -15 -27 -18 -35 -4 -8 -22 -47 -40 -86 -36 -75 -45
-149 -22 -172 21 -21 84 -14 114 12 27 22 27 25 15 65 -12 41 -11 44 39 144
71 142 104 201 113 205 4 2 7 9 7 17 0 7 7 19 16 26 18 15 126 37 187 38 43 1
163 27 189 42 10 5 26 9 36 9 21 0 62 39 62 59 0 10 -14 11 -57 6 -118 -13
-333 -17 -333 -5 0 19 133 244 151 255 5 4 9 26 9 51 0 43 0 44 -34 44 -27 0
-41 -8 -67 -39 -42 -49 -79 -108 -79 -127 0 -8 -4 -14 -8 -14 -4 0 -13 -12
-19 -27 -21 -49 -81 -147 -92 -151 -6 -2 -11 -10 -11 -18 0 -11 -16 -14 -71
-14 -96 0 -146 -16 -165 -53 -16 -29 -9 -49 24 -70 17 -11 15 -27 -3 -27 -8 0
-15 -4 -15 -9 0 -6 -18 -20 -40 -32 -22 -13 -40 -26 -40 -31 0 -4 -5 -8 -10
-8 -6 0 -34 -11 -63 -25 -51 -25 -140 -37 -165 -21 -23 14 -13 98 18 151 16
28 32 57 36 65 3 8 12 27 20 42 17 32 18 102 2 116 -32 26 -94 32 -149 16 -68
-20 -183 -80 -223 -116 -17 -16 -35 -28 -39 -28 -5 0 -7 -14 -3 -31 6 -31 -16
-89 -33 -89 -5 0 -27 -17 -48 -38 -70 -71 -133 -110 -133 -83 0 5 16 32 35 61
38 57 40 60 25 60 -5 0 -10 -7 -10 -15 0 -8 -4 -15 -10 -15 -5 0 -38 -17 -73
-39 -34 -21 -81 -44 -102 -52 -22 -7 -49 -19 -60 -26 -27 -18 -90 -16 -109 3
-20 19 -20 34 -1 104 8 30 15 72 15 92 0 20 5 40 10 43 17 11 12 77 -7 91 -21
16 -73 18 -73 4 0 -5 -13 -10 -29 -10 -16 0 -34 -7 -41 -15 -7 -8 -19 -15 -26
-15 -8 0 -14 -4 -14 -10 0 -5 -5 -10 -11 -10 -23 0 -161 -112 -245 -200 -45
-47 -66 -62 -74 -54 -8 8 -2 28 20 72 16 33 30 63 30 66 0 4 20 48 44 99 24
50 56 119 71 152 35 77 114 245 126 268 12 23 -9 57 -36 56 -11 0 -32 -8 -47
-17z m1100 -427 c4 -32 -43 -134 -65 -142 -7 -3 -13 -10 -13 -15 0 -15 -133
-141 -167 -158 -15 -8 -30 -17 -33 -21 -12 -13 -92 -49 -110 -49 -27 0 -37 43
-16 75 9 13 16 31 16 39 0 8 6 19 13 23 7 4 26 26 42 48 37 50 166 171 197
186 13 5 39 19 58 29 49 27 74 22 78 -15z m550 -56 c1 -8 -2 -28 -7 -42 -10
-25 -15 -27 -71 -27 -74 0 -77 13 -12 58 49 34 85 38 90 11z"/>
<path d="M4730 1673 c-17 -7 -120 -114 -120 -124 0 -10 -108 -126 -208 -223
-157 -153 -224 -216 -226 -216 -2 0 -41 -37 -87 -83 -156 -153 -204 -194 -242
-206 -44 -15 -52 -27 -38 -64 10 -25 15 -27 67 -27 70 0 84 10 253 170 42 40
86 60 130 60 22 0 60 4 83 10 159 36 278 54 288 44 5 -5 14 -49 21 -99 14
-102 36 -164 58 -166 82 -6 107 20 104 108 -1 37 -6 69 -11 72 -6 3 -15 134
-21 291 -6 157 -11 292 -12 300 -1 15 16 69 32 102 23 46 -14 73 -71 51z m-96
-295 c3 -13 6 -67 6 -120 0 -108 -10 -128 -60 -128 -16 0 -32 -4 -35 -10 -3
-5 -30 -10 -59 -10 -30 0 -67 -7 -82 -15 -33 -17 -53 -19 -73 -6 -19 12 14 48
259 286 31 30 36 30 44 3z"/>
<path d="M1410 1658 c-14 -6 -43 -17 -65 -25 -77 -29 -213 -100 -235 -123 -3
-3 -25 -18 -50 -34 -69 -45 -206 -175 -260 -246 -14 -19 -29 -38 -35 -44 -5
-6 -17 -24 -25 -41 -8 -16 -18 -32 -22 -35 -23 -17 -70 -149 -75 -210 -10
-119 14 -156 120 -184 66 -18 72 -18 145 -1 91 20 136 33 179 52 17 7 36 13
42 13 10 0 20 4 71 31 8 4 47 24 85 44 98 50 148 78 163 93 7 6 18 12 23 12 5
0 22 11 37 25 15 14 31 25 35 25 5 0 40 26 78 58 68 56 87 86 75 118 -5 13
-14 10 -56 -20 -28 -20 -55 -36 -60 -36 -6 0 -10 -4 -10 -10 0 -5 -6 -10 -14
-10 -8 0 -16 -3 -18 -7 -4 -11 -65 -53 -76 -53 -4 0 -17 -9 -29 -19 -11 -11
-42 -29 -69 -41 -27 -13 -61 -31 -76 -41 -14 -11 -35 -19 -46 -19 -11 0 -25
-7 -32 -15 -7 -8 -21 -15 -31 -15 -11 0 -19 -4 -19 -9 0 -5 -14 -13 -32 -16
-18 -4 -39 -11 -48 -16 -61 -32 -207 -51 -254 -33 -9 3 -23 22 -32 40 -14 29
-15 41 -4 82 16 60 61 162 72 162 4 0 8 5 8 11 0 22 205 249 224 249 4 0 19
11 34 25 15 14 31 25 36 25 5 0 14 7 20 15 15 20 162 95 185 95 11 0 21 4 23
9 2 5 24 12 51 16 42 6 47 5 47 -11 0 -11 -23 -39 -51 -63 -43 -37 -50 -47
-47 -75 3 -28 6 -31 41 -34 30 -3 47 3 75 24 20 15 40 33 44 38 3 6 25 31 47
55 34 37 41 51 41 86 0 28 -7 51 -21 69 -19 24 -25 26 -102 25 -45 0 -93 -5
-107 -11z"/>
<path d="M5560 1660 c-14 -4 -40 -8 -59 -9 -35 -1 -132 -26 -163 -42 -10 -5
-24 -9 -31 -9 -20 0 -77 -60 -77 -80 0 -29 24 -42 54 -30 30 11 79 13 89 4 3
-3 -9 -27 -27 -52 -40 -58 -59 -94 -149 -282 -62 -132 -77 -166 -77 -181 0
-13 -13 -57 -36 -122 -8 -20 -14 -62 -14 -92 0 -67 23 -90 71 -72 16 6 29 17
29 23 0 6 7 17 15 24 8 7 15 21 15 32 0 22 27 114 41 140 5 10 9 26 9 37 0 10
6 34 14 52 12 28 23 37 63 48 26 8 70 25 97 38 28 12 62 23 77 23 15 0 29 4
31 8 2 5 64 38 138 75 240 120 285 152 374 270 39 51 42 114 7 151 -41 43
-109 56 -298 55 -92 -1 -179 -5 -193 -9z m315 -104 c53 -11 60 -16 63 -38 2
-19 -11 -37 -62 -85 -36 -34 -83 -70 -103 -81 -21 -10 -55 -29 -76 -41 -21
-11 -43 -21 -49 -21 -6 0 -19 -6 -27 -13 -9 -8 -32 -20 -51 -27 -19 -7 -48
-19 -65 -26 -72 -30 -143 -52 -149 -47 -14 15 10 94 36 113 3 3 10 18 13 33 4
15 11 27 16 27 5 0 9 4 9 10 0 5 15 34 34 63 19 30 39 69 43 88 9 33 11 34 79
45 93 16 216 15 289 0z"/>
<path d="M6567 1664 c-3 -4 -34 -10 -69 -14 -116 -15 -197 -43 -241 -84 -47
-43 -27 -97 27 -76 72 27 95 3 53 -54 -13 -17 -50 -85 -83 -151 -32 -66 -62
-121 -66 -123 -5 -2 -8 -15 -8 -28 0 -13 -4 -24 -9 -24 -5 0 -11 -8 -14 -17
-3 -10 -15 -43 -27 -73 -36 -91 -72 -261 -63 -298 8 -32 41 -43 75 -26 29 15
53 59 61 109 5 31 23 87 38 117 5 10 9 29 9 43 0 40 26 71 73 84 23 7 55 19
70 27 16 8 37 14 48 14 10 0 19 5 19 10 0 6 15 10 34 10 21 0 36 6 40 15 3 8
11 15 18 15 7 0 36 12 63 25 28 14 55 25 62 25 6 0 13 3 15 8 2 4 23 17 48 30
69 36 124 66 130 72 3 3 24 18 47 33 47 33 91 78 118 125 11 17 23 32 27 32 4
0 8 24 8 54 0 49 -3 56 -32 78 -18 14 -46 29 -63 33 -37 10 -398 18 -408 9z
m295 -106 c48 -10 78 -29 78 -50 0 -10 -101 -118 -110 -118 -4 0 -35 -18 -68
-40 -33 -22 -65 -40 -71 -40 -6 0 -11 -4 -11 -10 0 -5 -8 -10 -17 -10 -10 0
-40 -11 -68 -24 -27 -13 -70 -31 -95 -41 -25 -9 -60 -23 -78 -31 -38 -16 -82
-18 -82 -4 0 6 4 18 9 28 5 9 17 33 25 52 32 70 113 202 129 208 4 2 7 18 7
36 0 32 1 33 63 43 89 14 226 15 289 1z"/>
</g>
</svg>
